<svg width="25" height="26" viewBox="0 0 25 26" fill="none" xmlns="http://www.w3.org/2000/svg">
<path fill-rule="evenodd" clip-rule="evenodd" d="M0.247125 0.194724C-0.00381342 0.337915 0.00102266 0.267452 9.45234e-05 3.77093C-0.000882463 7.44155 -0.000589364 7.44582 0.340965 8.15922C0.578959 8.65644 1.04102 9.16281 1.49972 9.42918L1.80288 9.60521L1.81612 17.1747L1.82935 24.7442L1.93223 24.973C2.08259 25.3077 2.31203 25.5513 2.62648 25.7103C2.85534 25.826 2.96833 25.8507 3.27041 25.8507C3.88103 25.8507 4.35345 25.5408 4.60859 24.973L4.71146 24.7442L4.72563 17.1747L4.7398 9.60521L5.04281 9.42918C5.49994 9.16357 5.96166 8.65684 6.19985 8.15922C6.54097 7.44673 6.5415 7.43974 6.54248 3.78099C6.54336 0.243662 6.54849 0.312416 6.27601 0.184615C6.11402 0.108618 5.99561 0.108618 5.83363 0.184615C5.56423 0.310957 5.56633 0.286715 5.56633 3.29061V6.05938H5.12668H4.68704V3.29549C4.68704 1.25978 4.67165 0.496849 4.62866 0.399729C4.56487 0.255582 4.36004 0.124512 4.19855 0.124512C4.03705 0.124512 3.83223 0.255582 3.76843 0.399729C3.72544 0.496849 3.71005 1.25978 3.71005 3.29549V6.05938H3.27041H2.83077V3.29549C2.83077 1.25978 2.81538 0.496849 2.77239 0.399729C2.66766 0.163038 2.37388 0.0660181 2.12108 0.184615C1.85168 0.310957 1.85378 0.286715 1.85378 3.29061V6.05938H1.41414H0.974492V3.29549C0.974492 1.25978 0.959104 0.496849 0.916117 0.399729C0.809186 0.158009 0.485315 0.0587755 0.247125 0.194724ZM24.098 0.322726C23.6556 0.628875 23.0256 1.21059 22.6044 1.70183C21.5761 2.90112 20.864 4.40089 20.5537 6.0208C20.4483 6.57144 20.4447 6.69798 20.4284 10.4917C20.4098 14.8015 20.4066 14.7459 20.7152 15.3755C20.826 15.6014 21.0368 15.8649 21.4719 16.3211L22.075 16.9536L22.0884 20.8489C22.1016 24.6886 22.1033 24.7474 22.2047 24.973C22.3551 25.3077 22.5845 25.5513 22.8989 25.7103C23.1278 25.826 23.2408 25.8507 23.5429 25.8507C24.1535 25.8507 24.6259 25.5408 24.8811 24.973L24.9839 24.7442L24.9968 12.6481C25.0063 3.59988 24.9954 0.516565 24.9532 0.411347C24.8907 0.255179 24.6858 0.124512 24.5034 0.124512C24.438 0.124512 24.2555 0.213736 24.098 0.322726ZM23.9761 24.5831C23.9159 24.7337 23.7102 24.8699 23.5429 24.8699C23.4014 24.8699 23.1727 24.7413 23.1214 24.6328C23.098 24.5834 23.0678 22.7396 23.0544 20.5356L23.03 16.5282L22.3433 15.8078C21.8924 15.3348 21.6156 15.0011 21.5373 14.8359L21.4179 14.5845L21.4045 10.8905C21.3934 7.83441 21.4037 7.09612 21.4645 6.61535C21.6819 4.89489 22.4284 3.30766 23.5917 2.09232L24.0069 1.65852L24.0196 13.0505C24.0291 21.548 24.018 24.4781 23.9761 24.5831ZM11.4282 3.44945C10.5294 3.55421 9.41868 3.87766 8.61946 4.26745C8.13267 4.5049 8.00879 4.63169 8.00879 4.89247C8.00879 5.12177 8.23291 5.35524 8.45303 5.35524C8.54027 5.35524 8.89917 5.23227 9.25059 5.08199C10.6649 4.47713 12.1116 4.27495 13.5941 4.47507C15.3663 4.71423 16.8856 5.4581 18.2144 6.73706C18.6725 7.17795 18.7278 7.21618 18.9086 7.21618C19.1893 7.21618 19.3907 7.00438 19.3907 6.70925C19.3907 6.51038 19.3665 6.4722 19.0228 6.12849C17.5055 4.61127 15.5859 3.68428 13.4696 3.44693C12.9254 3.38587 11.9635 3.38708 11.4282 3.44945ZM11.7946 5.88978C10.724 6.00939 9.53626 6.46044 8.59933 7.10321C8.05271 7.47827 7.1381 8.42 6.78009 8.97652C6.25241 9.79674 5.90578 10.6359 5.70169 11.5872C5.55382 12.2765 5.55436 13.7147 5.70271 14.4132C6.30908 17.2676 8.37414 19.3855 11.1504 20.0002C11.8609 20.1575 13.1432 20.1579 13.8514 20.001C14.5645 19.8431 15.0408 19.6683 15.6818 19.3294C17.5445 18.3445 18.8491 16.5651 19.3013 14.3927C19.4438 13.7083 19.4552 12.3931 19.3245 11.7194C18.8852 9.45498 17.5232 7.604 15.556 6.59814C14.6274 6.1233 13.7798 5.91186 12.6983 5.88536C12.3088 5.8758 11.9021 5.87776 11.7946 5.88978ZM13.3863 6.93739C15.2979 7.23408 16.9556 8.47975 17.8402 10.2842C18.0875 10.7889 18.3053 11.5024 18.3914 12.0906C18.8798 15.4266 16.6292 18.5596 13.3824 19.0635C10.8094 19.4629 8.25861 18.0662 7.13156 15.6407C5.79734 12.7692 6.81535 9.3572 9.4987 7.70716C10.6306 7.01112 12.0503 6.73002 13.3863 6.93739ZM5.50331 7.23639C5.41836 7.77536 4.85606 8.4552 4.31603 8.67188C4.15737 8.73555 3.96715 8.85314 3.89324 8.93316L3.7589 9.07872V16.7756C3.7589 25.1446 3.77444 24.6771 3.4916 24.8098C3.32961 24.8858 3.2112 24.8858 3.04922 24.8098C2.76638 24.6771 2.78192 25.1443 2.78192 16.7787V9.0848L2.65545 8.93009C2.58588 8.84499 2.50147 8.77534 2.46786 8.77534C2.31878 8.77534 1.80259 8.45324 1.57632 8.21907C1.3158 7.94943 1.08299 7.52479 1.03751 7.23639L1.01054 7.06529H3.27041H5.53028L5.50331 7.23639ZM12.2761 8.42286C12.1184 8.48835 12.0144 8.67439 12.0144 8.89096C12.0144 9.39221 12.6984 9.56492 12.9218 9.12011C13.1425 8.68063 12.7294 8.23451 12.2761 8.42286ZM10.4789 8.88015C9.17976 9.55723 8.26203 10.8816 8.06106 12.369C7.97259 13.0241 7.98598 13.1376 8.17488 13.3321C8.35826 13.5209 8.51507 13.5482 8.73709 13.43C8.90962 13.3381 8.9616 13.1914 9.02481 12.6175C9.08269 12.0922 9.24898 11.5586 9.48302 11.1475C9.72863 10.7162 10.3574 10.0981 10.8182 9.83516C11.0328 9.71269 11.2465 9.57941 11.2929 9.53907C11.4195 9.42913 11.4507 9.16704 11.3588 8.98411C11.2059 8.67977 10.9266 8.64678 10.4789 8.88015ZM19.2844 18.1697C19.2394 18.1895 18.9433 18.4862 18.6262 18.829C17.364 20.1939 16.0915 20.9586 14.3914 21.3741C12.3612 21.8702 10.116 21.5259 8.32631 20.444C8.05056 20.2774 7.82761 20.1772 7.7282 20.1753C7.39139 20.1689 7.14948 20.5317 7.27786 20.8507C7.35206 21.0352 7.62083 21.2241 8.32631 21.5877C12.2652 23.6177 17.0463 22.5363 19.7937 18.9938C19.88 18.8826 19.928 18.7604 19.928 18.6523C19.928 18.3427 19.5444 18.0551 19.2844 18.1697ZM6.01134 19.0052C5.94716 19.0419 5.86548 19.1259 5.82992 19.192C5.55768 19.6977 6.19956 20.202 6.59592 19.7939C6.99229 19.3858 6.50247 18.7249 6.01134 19.0052Z" fill="white"/>
</svg>
