<svg width="25" height="27" viewBox="0 0 25 27" fill="none" xmlns="http://www.w3.org/2000/svg">
<path fill-rule="evenodd" clip-rule="evenodd" d="M11.5619 0.471383C11.4678 0.482647 11.1818 0.516387 10.9264 0.546407C7.05783 1.00077 3.48357 3.49475 1.52212 7.10841C0.806033 8.42766 0.287706 10.0637 0.0656987 11.7056C-0.0317382 12.4261 -0.0182447 14.3537 0.0892634 15.0746C0.528732 18.0218 1.70717 20.4319 3.69697 22.4528C4.00277 22.7633 4.45094 23.1804 4.69295 23.3794C7.82858 25.9585 11.995 26.8226 15.8887 25.7013C20.4303 24.3935 23.9355 20.4566 24.7838 15.7107C25.5436 11.4601 24.2793 7.24986 21.3334 4.21995C19.3866 2.21759 17.0358 1.0054 14.2509 0.567928C13.7635 0.491346 11.9422 0.425977 11.5619 0.471383ZM12.9193 5.40363C13.2038 5.62217 13.2474 5.73827 13.265 6.32488C13.2841 6.95494 13.2825 6.95238 13.7564 7.13043C14.3897 7.36833 15.084 7.95338 15.4627 8.56815C15.7782 9.08019 16.0109 9.87055 16.0109 10.4298C16.0109 10.7093 15.8669 11.0073 15.6576 11.1608C15.4418 11.3191 15.0049 11.3261 14.8075 11.1745C14.5565 10.9818 14.4883 10.836 14.4414 10.3923C14.3565 9.58725 13.9632 9.00371 13.2819 8.67173C12.9865 8.52782 12.9108 8.51259 12.4908 8.51259C12.0708 8.51259 11.9951 8.52782 11.6998 8.67173C11.2453 8.89318 10.9622 9.17824 10.7423 9.63593C10.57 9.99455 10.5597 10.0429 10.5597 10.4962C10.5597 10.9311 10.5743 11.0082 10.7144 11.3124C10.926 11.7717 11.2082 12.0717 11.6306 12.2864C11.9412 12.4443 12.0435 12.4688 12.579 12.5134C13.6405 12.6018 14.2791 12.8909 14.9599 13.5911C15.5999 14.2493 15.9325 14.9831 15.9938 15.8723C16.1021 17.4407 15.1556 18.9734 13.7536 19.5C13.2825 19.677 13.2733 19.6909 13.272 20.224C13.2707 20.7625 13.1773 21.0287 12.9243 21.2143C12.704 21.3759 12.2692 21.3846 12.0696 21.2313C11.7773 21.0068 11.7344 20.8941 11.7166 20.3045C11.6976 19.6745 11.6992 19.677 11.2252 19.499C10.592 19.2611 9.89768 18.676 9.51893 18.0613C9.2035 17.5492 8.97078 16.7588 8.97078 16.1996C8.97078 15.9201 9.11481 15.6221 9.32411 15.4686C9.53986 15.3103 9.97678 15.3033 10.1742 15.4549C10.4246 15.6472 10.4934 15.7937 10.5414 16.2371C10.6279 17.0373 10.9936 17.5944 11.6519 17.929C12.001 18.1065 12.0472 18.1168 12.4908 18.1168C12.9345 18.1168 12.9807 18.1065 13.3298 17.929C13.7748 17.7028 14.0519 17.4117 14.2672 16.9442C14.4072 16.6404 14.422 16.5626 14.422 16.1306C14.422 15.6986 14.4072 15.6208 14.2672 15.317C14.0557 14.8577 13.7735 14.5577 13.3511 14.343C13.0404 14.1851 12.9382 14.1606 12.4026 14.116C11.3412 14.0276 10.7026 13.7385 10.0218 13.0383C9.80655 12.8169 9.54749 12.4888 9.44604 12.309C8.78676 11.1407 8.8293 9.65494 9.55423 8.52732C9.9674 7.88469 10.5805 7.3726 11.228 7.12938C11.6992 6.95238 11.7084 6.93855 11.7097 6.40544C11.7111 5.77257 11.8603 5.46629 12.2464 5.30286C12.3855 5.24398 12.7902 5.30457 12.9193 5.40363Z" fill="white"/>
</svg>
