<svg width="25" height="27" viewBox="0 0 25 27" fill="none" xmlns="http://www.w3.org/2000/svg">
<path fill-rule="evenodd" clip-rule="evenodd" d="M11.3722 0.56987C8.95788 0.813256 6.72643 1.72907 4.76994 3.27953C3.81718 4.03455 2.57987 5.45349 1.86484 6.61099C1.55604 7.1109 0.954917 8.37765 0.739578 8.98219C0.498807 9.6582 0.24219 10.6912 0.115911 11.4928C-0.0386369 12.4739 -0.0386369 14.3366 0.115911 15.3177C0.334429 16.7047 0.680107 17.8259 1.27179 19.0672C1.91825 20.4232 2.59043 21.3845 3.66683 22.4922C4.74329 23.5999 5.67742 24.2916 6.99523 24.9568C8.20148 25.5657 9.29104 25.9214 10.6388 26.1463C11.5922 26.3053 13.4024 26.3053 14.3558 26.1463C15.7036 25.9214 16.7931 25.5657 17.9994 24.9568C19.3172 24.2916 20.2513 23.5999 21.3278 22.4922C22.4042 21.3845 23.0764 20.4232 23.7228 19.0672C24.1522 18.1664 24.3682 17.576 24.5995 16.6708C24.9076 15.4652 24.9857 14.8044 24.9857 13.4053C24.9857 12.0061 24.9076 11.3453 24.5995 10.1397C24.3682 9.23448 24.1522 8.64414 23.7228 7.74337C23.0764 6.38728 22.4042 5.42602 21.3278 4.3183C20.2513 3.21063 19.3172 2.51892 17.9994 1.85369C16.7943 1.24537 15.6832 0.882457 14.3802 0.671532C13.6614 0.555174 12.0561 0.500921 11.3722 0.56987ZM14.0314 1.75228C16.5407 2.11494 18.7856 3.26428 20.5688 5.09929C22.3854 6.96867 23.4997 9.31154 23.8489 11.9961C23.9289 12.6116 23.9289 14.1989 23.8489 14.8144C23.4997 17.499 22.3854 19.8419 20.5688 21.7112C18.7522 23.5806 16.4755 24.7272 13.8667 25.0865C13.2686 25.1689 11.726 25.1689 11.1279 25.0865C8.51913 24.7272 6.2424 23.5806 4.42578 21.7112C2.60921 19.8419 1.49495 17.499 1.14575 14.8144C1.06569 14.1989 1.06569 12.6116 1.14575 11.9961C1.49495 9.31154 2.60921 6.96867 4.42578 5.09929C6.4169 3.05033 8.84095 1.92118 11.8126 1.65831C12.2083 1.62334 13.5248 1.6791 14.0314 1.75228ZM18.7105 8.50428C18.6268 8.5768 17.0051 10.7567 15.1066 13.3483C13.2082 15.9401 11.627 18.0911 11.5928 18.1284C11.5414 18.1845 11.0897 17.8256 8.99393 16.0638C7.59875 14.891 6.39377 13.881 6.31615 13.8193C6.01014 13.5762 5.55794 13.7229 5.45733 14.0979C5.3626 14.451 5.40212 14.4913 7.90002 16.5917C11.5698 19.6775 11.4044 19.5453 11.5925 19.5453C11.6832 19.5453 11.8105 19.5245 11.8755 19.499C12.0459 19.4323 19.4926 9.2679 19.5445 9.03111C19.6534 8.53427 19.0882 8.1773 18.7105 8.50428Z" fill="white"/>
</svg>
