<svg width="21" height="31" viewBox="0 0 21 31" fill="none" xmlns="http://www.w3.org/2000/svg">
<path fill-rule="evenodd" clip-rule="evenodd" d="M13.7661 1.23888C11.3329 1.86016 9.26915 2.38729 9.1799 2.41027C8.81868 2.50332 8.77426 3.05476 9.11315 3.23894C9.25103 3.3139 9.64551 3.22446 13.5639 2.23002L17.8634 1.13884V2.88006V4.62134H16.8215C15.7945 4.62134 15.7775 4.62345 15.6339 4.76939C15.4468 4.95929 15.4433 5.22096 15.6255 5.39482C15.7615 5.52454 15.7865 5.52593 17.9414 5.52593H20.1199V17.7982V30.0705H13.1102H6.10043L5.95471 30.2186C5.87454 30.3 5.80892 30.4369 5.80892 30.5228C5.80892 30.6088 5.87454 30.7457 5.95471 30.8271L6.10043 30.9751H13.4005C20.4996 30.9751 20.7044 30.9719 20.8407 30.8598L20.9809 30.7446L20.9965 17.9091C21.0075 8.826 20.9933 5.02744 20.9479 4.91563C20.8453 4.66265 20.6662 4.62134 19.6717 4.62134H18.7541V2.50791V0.394417L18.6083 0.246426C18.5282 0.165012 18.4013 0.100847 18.3263 0.103862C18.2513 0.106877 16.1992 0.61767 13.7661 1.23888ZM3.90872 3.74467C1.93279 4.25154 0.271834 4.68526 0.217678 4.70842C0.163462 4.73164 0.0897105 4.8233 0.0536659 4.91213C0.00639824 5.02858 -0.00755659 8.65455 0.00366652 17.9091L0.0192245 30.7446L0.159424 30.8598C0.291726 30.9686 0.421416 30.9751 2.46313 30.9751H4.6267L4.77242 30.8271C4.97081 30.6257 4.9663 30.3589 4.76173 30.1955C4.61102 30.0751 4.53709 30.0705 2.74276 30.0705H0.880257V17.7982V5.52593H7.59304H14.3059L14.4516 5.37788C14.5318 5.29646 14.5974 5.18924 14.5974 5.13955C14.5974 4.97009 14.4658 4.7554 14.3209 4.68828C14.2188 4.64106 12.7116 4.61977 9.20573 4.61603L4.23531 4.61072L6.0034 4.14866C7.03854 3.87812 7.82012 3.64311 7.88876 3.58166C8.06566 3.42335 8.04565 3.09378 7.84957 2.93717C7.76353 2.86842 7.64993 2.81462 7.5972 2.81764C7.54447 2.82065 5.88464 3.23785 3.90872 3.74467ZM13.5259 10.697C12.3178 11.8329 11.5424 13.2477 11.6552 14.1105C11.6768 14.2759 11.7338 14.507 11.7821 14.6241L11.8697 14.8371L11.2899 15.4282C10.971 15.7532 10.6825 16.0192 10.6487 16.0192C10.6149 16.0192 10.2691 15.6952 9.88024 15.2993L9.17325 14.5794L9.27253 14.2672C9.46843 13.6512 9.37306 12.908 9.00229 12.1601C8.75045 11.6522 8.04102 10.919 7.58995 10.7004C6.68326 10.2611 5.77739 10.3832 5.1062 11.0352C4.0276 12.0828 4.37462 13.8347 5.85922 14.8371C6.64419 15.367 7.61561 15.5561 8.24357 15.3011L8.51078 15.1925L9.2676 15.9515L10.0244 16.7104L8.45111 18.3122C7.40641 19.3759 6.87779 19.9561 6.87779 20.0391C6.87779 20.2681 7.10077 20.4819 7.33972 20.4819C7.54263 20.4819 7.64791 20.3883 9.10294 18.9144L10.6504 17.347L12.193 18.9144C13.6393 20.3841 13.7488 20.4819 13.9494 20.4819C14.2105 20.4819 14.3654 20.3277 14.3729 20.0604C14.3777 19.8869 14.2269 19.7144 12.8248 18.2897L11.2714 16.7112L11.89 16.0852L12.5085 15.4591L12.7618 15.562C13.7145 15.9491 15.0287 15.3438 16.4531 13.8616C16.8821 13.4152 16.9727 13.2881 16.9727 13.1323C16.9727 12.8844 16.7898 12.7024 16.5408 12.7024C16.3763 12.7024 16.2734 12.7774 15.8727 13.1893C14.9529 14.1349 14.0039 14.7526 13.4709 14.7527L13.2055 14.7528L14.4953 13.438C15.6366 12.2745 15.785 12.101 15.785 11.9303C15.785 11.6785 15.604 11.4962 15.354 11.4962C15.1811 11.4962 15.0244 11.6345 13.8848 12.7928C13.1832 13.5059 12.5858 14.0894 12.5573 14.0894C12.4612 14.0894 12.5829 13.5191 12.7576 13.151C12.9927 12.6556 13.4384 12.0708 14.0704 11.4284C14.6434 10.8459 14.7197 10.6556 14.4786 10.4107C14.2453 10.1738 14.0058 10.2457 13.5259 10.697ZM7.15831 11.496C7.53817 11.6667 8.03745 12.2063 8.25924 12.6858C8.61346 13.4519 8.53418 14.1392 8.06085 14.4055C7.79571 14.5547 7.2032 14.5231 6.79044 14.3376C5.48066 13.7492 4.95086 12.387 5.74758 11.656C5.87763 11.5366 6.05821 11.4224 6.14888 11.402C6.2395 11.3817 6.34039 11.3548 6.37305 11.3423C6.48492 11.2993 6.90238 11.3811 7.15831 11.496ZM5.77116 23.025C5.64473 23.0871 5.51202 23.3108 5.51202 23.4617C5.51202 23.5054 5.56742 23.6127 5.63511 23.7001L5.75815 23.859H10.4774H15.1966L15.3423 23.711C15.4225 23.6295 15.4881 23.5223 15.4881 23.4726C15.4881 23.3032 15.3565 23.0885 15.2116 23.0213C15.0163 22.931 5.95518 22.9344 5.77116 23.025ZM7.28818 25.4795C7.18883 25.5611 7.15095 25.6549 7.15095 25.819C7.15095 25.983 7.18883 26.0768 7.28818 26.1584C7.41828 26.2654 7.58425 26.2712 10.4934 26.2712C13.8244 26.2712 13.7664 26.277 13.8496 25.9405C13.893 25.7648 13.7599 25.4606 13.6149 25.4041C13.5621 25.3835 12.1478 25.3667 10.4721 25.3667C7.58378 25.3667 7.41822 25.3725 7.28818 25.4795Z" fill="white"/>
</svg>
