<svg width="25" height="27" viewBox="0 0 25 27" fill="none" xmlns="http://www.w3.org/2000/svg">
<path fill-rule="evenodd" clip-rule="evenodd" d="M12.0054 0.41126C11.4508 0.606392 11.0973 0.973428 10.9352 1.52262C10.722 2.24498 11.1095 3.04778 11.8325 3.38168C12.2414 3.57048 12.8195 3.56656 13.2011 3.37243C13.4985 3.22109 13.7862 2.95989 13.9052 2.73329C13.9486 2.65078 14.0006 2.58331 14.021 2.58341C14.0413 2.58351 14.2648 2.61875 14.5175 2.66174C16.268 2.95939 18.0025 3.70588 19.4574 4.78763C23.3059 7.6491 24.8818 12.7127 23.3434 17.2743C23.098 18.0018 22.6218 19.0181 22.2519 19.6036C20.4267 22.4925 17.4704 24.3974 14.058 24.8835C13.2321 25.0011 11.7693 25.0011 10.9434 24.8835C7.53101 24.3974 4.57471 22.4925 2.74952 19.6036C2.3796 19.0181 1.90338 18.0018 1.65804 17.2743C0.871175 14.9411 0.872401 12.4952 1.66166 10.155C2.08964 8.88596 2.91607 7.43501 3.74057 6.50501C4.44232 5.71347 4.48449 5.65374 4.48449 5.45141C4.48449 5.11515 4.17104 4.87306 3.82073 4.93877C3.58147 4.98367 2.63132 6.0627 2.0202 6.98346C0.909367 8.65724 0.246984 10.5055 0.0397879 12.5098C-0.0380254 13.2624 0.00348517 14.8813 0.119184 15.6055C0.884144 20.3952 4.40642 24.2924 9.16182 25.6106C13.0189 26.6797 17.2673 25.8038 20.3946 23.2948C22.791 21.3721 24.4001 18.6153 24.8825 15.6055C25.0116 14.8003 25.0399 13.1688 24.9395 12.3188C24.5241 8.8022 22.6837 5.72895 19.7647 3.67732C18.2358 2.60276 16.0699 1.74742 14.3782 1.55018L14.0858 1.51609L13.9641 1.25444C13.6328 0.541784 12.734 0.154888 12.0054 0.41126ZM12.8778 1.57889C13.2101 1.89479 12.9703 2.44615 12.5007 2.44615C12.0343 2.44615 11.7969 1.90751 12.1178 1.57763C12.3477 1.34137 12.6285 1.34182 12.8778 1.57889ZM5.67829 6.85243C5.59068 6.90503 5.49458 7.017 5.46477 7.10131C5.35172 7.42063 5.20595 7.21369 8.5872 11.5329C10.4498 13.9122 11.2553 14.8791 11.5169 15.0497C12.3691 15.6055 13.5354 15.277 13.973 14.3579C14.2279 13.8223 14.1341 13.0774 13.7559 12.6349C13.5286 12.3688 12.1715 11.3098 8.40411 8.45854C7.3014 7.62401 6.33026 6.8997 6.24601 6.84896C6.0502 6.73111 5.87855 6.73217 5.67829 6.85243ZM10.2286 11.1998C11.587 12.2344 12.8087 13.1975 12.8985 13.3048C13.308 13.7932 12.6706 14.5068 12.1353 14.1592C11.9848 14.0615 11.4885 13.4628 10.187 11.8094C9.70815 11.2011 9.23437 10.6027 9.1342 10.4799C9.03407 10.357 8.98659 10.2762 9.02871 10.3004C9.07083 10.3246 9.61078 10.7293 10.2286 11.1998Z" fill="white"/>
</svg>
