<svg width="17" height="17" viewBox="0 0 17 17" fill="none" xmlns="http://www.w3.org/2000/svg">
<path d="M8.75 15.1287C8.33579 15.1287 8 15.4742 8 15.9005C8 16.3267 8.33579 16.6723 8.75 16.6723H14.75C15.7165 16.6723 16.5 15.866 16.5 14.8714V2.52288C16.5 1.52831 15.7165 0.722046 14.75 0.722046H8.75C8.33579 0.722046 8 1.06759 8 1.49383C8 1.92008 8.33579 2.26562 8.75 2.26562L14.75 2.26562C14.8881 2.26562 15 2.3808 15 2.52288L15 14.8714C15 15.0135 14.8881 15.1287 14.75 15.1287H8.75Z" fill="white"/>
<path fill-rule="evenodd" clip-rule="evenodd" d="M11.2531 11.1311C11.9434 11.1311 12.5031 10.5552 12.5031 9.84476V7.53917C12.5031 6.82876 11.9434 6.25286 11.2531 6.25286L6.64048 6.25286C6.63396 6.1773 6.62713 6.10176 6.62 6.02625L6.56597 5.45422C6.48354 4.58147 5.58294 4.05881 4.81451 4.43777C3.18029 5.24371 1.70085 6.34659 0.447355 7.69336L0.348156 7.79994C-0.116052 8.29869 -0.116052 9.08523 0.348155 9.58398L0.447355 9.69056C1.70085 11.0373 3.18029 12.1402 4.81451 12.9461C5.58293 13.3251 6.48354 12.8024 6.56597 11.9297L6.62 11.3577C6.62713 11.2822 6.63396 11.2066 6.64048 11.1311H11.2531ZM5.94511 9.5875C5.67874 9.5875 5.44326 9.73084 5.31008 9.94845C5.24523 10.0544 5.20464 10.178 5.19656 10.3112C5.17842 10.6106 5.15524 10.9096 5.12703 11.2084L5.11135 11.3744C4.0753 10.8249 3.11316 10.1407 2.24838 9.33918C2.02402 9.13124 1.80622 8.91539 1.59538 8.69196C2.61892 7.60729 3.80651 6.70151 5.11135 6.00953L5.12703 6.17556C5.15524 6.47427 5.17842 6.77336 5.19656 7.07269C5.22122 7.47949 5.54902 7.79643 5.94511 7.79643H11.0031V9.5875H5.94511Z" fill="white"/>
</svg>
