<svg width="28" height="22" viewBox="0 0 28 22" fill="none" xmlns="http://www.w3.org/2000/svg">
<path d="M14.0453 2.69834C14.0137 2.76381 13.9917 2.83951 13.9873 2.92383C13.9804 3.05614 14.019 3.17142 14.0719 3.26015C14.1683 3.42191 14.3185 3.51068 14.4224 3.55856C14.5385 3.61214 14.6699 3.6479 14.8055 3.67014C15.6492 3.80862 16.3718 4.2107 16.8415 4.77229L17.225 4.45154L16.8415 4.7723C17.4426 5.49107 17.739 6.52355 17.8961 9.19207C18.0096 11.1189 18.1596 12.1761 18.4801 13.0586L18.4802 13.0586C18.6206 13.4452 19.1661 14.4501 19.6767 15.2909L19.6767 15.291C20.2591 16.2499 20.5613 16.7882 20.7263 17.2233C20.8807 17.6303 20.9187 17.9571 20.9229 18.5124L20.9256 18.8803L13.9709 18.9021L7.01566 18.9239V18.7548C7.01566 17.784 7.29095 16.9473 8.1865 15.4722C8.87839 14.3326 9.31412 13.5172 9.60008 12.6171C9.88531 11.7194 10.0131 10.7638 10.131 9.35748L9.63275 9.31571L10.131 9.35747C10.3363 6.90803 10.5003 6.16898 10.9019 5.4136L10.9019 5.41359C11.2625 4.73544 12.1025 4.08005 13.0875 3.78303L14.0453 2.69834ZM14.0453 2.69834C14.0274 2.69936 14.0094 2.69994 13.9913 2.70005C13.959 2.70025 13.9268 2.69897 13.8949 2.69623C13.9269 2.75974 13.9528 2.83566 13.9613 2.92284C13.974 3.05384 13.9441 3.176 13.8886 3.27871C13.7904 3.46044 13.6239 3.56227 13.5158 3.61825C13.3924 3.6821 13.2451 3.7355 13.0875 3.78302L14.0453 2.69834ZM3.64988 12.997L3.64989 12.997C3.72219 13.3225 3.86126 13.777 4.00605 14.1816C4.07798 14.3826 4.1489 14.5646 4.21062 14.7065C4.25074 14.7987 4.28023 14.8579 4.29798 14.8914C4.30095 14.8915 4.30407 14.8915 4.30733 14.8915C4.31714 14.8912 4.32676 14.8901 4.3355 14.8883C4.33554 14.8883 4.33557 14.8883 4.3356 14.8883C4.33592 14.8712 4.33496 14.8443 4.32997 14.8044C4.30845 14.6325 4.23144 14.3521 4.06088 13.8471L4.06087 13.8471C3.69333 12.7586 3.52313 11.7631 3.52313 10.6786C3.52313 9.36777 3.72054 8.42343 4.24516 7.22676L4.24518 7.22671C4.43771 6.78769 4.57781 6.48942 4.78031 6.18989C4.97914 5.89578 5.22911 5.614 5.61837 5.1909L5.61839 5.19088C6.08539 4.68334 6.28332 4.42504 6.35041 4.27747C6.34814 4.27512 6.3457 4.27264 6.34308 4.27003C6.31597 4.28088 6.27122 4.3034 6.20595 4.34856C6.12254 4.40627 6.01998 4.49083 5.89362 4.61006L3.64988 12.997ZM3.64988 12.997C2.90192 9.63079 3.72396 6.65734 5.89361 4.61007L3.64988 12.997ZM20.3338 7.35951L20.3338 7.35953C21.0223 8.11547 21.4593 8.94883 21.635 9.87886C21.7945 10.7227 21.695 11.9164 21.4022 12.767C21.3225 12.9984 21.266 13.1654 21.2274 13.2938C21.191 13.4147 21.1774 13.4791 21.173 13.5139C21.1803 13.5253 21.1927 13.5438 21.2132 13.5725L21.2132 13.5726C21.218 13.5794 21.2225 13.5851 21.2267 13.59L20.3338 7.35951ZM20.3338 7.35951C20.1823 7.19319 20.076 7.0676 20.003 6.9679M20.3338 7.35951L20.003 6.9679M20.003 6.9679C19.9525 6.89885 19.9264 6.8534 19.9133 6.82628M20.003 6.9679L19.9133 6.82628M19.9133 6.82628C19.9221 6.81368 19.9354 6.79619 19.955 6.7732C19.9562 6.77171 19.9575 6.77027 19.9587 6.76888C19.9986 6.79046 20.0548 6.82745 20.1313 6.88845C21.3359 7.85048 22.0557 9.80508 21.8041 11.6344L19.9133 6.82628ZM21.5238 12.8698C21.644 12.4836 21.7496 12.0306 21.8041 11.6344L21.5238 12.8698ZM21.5238 12.8698C21.4639 13.0625 21.4024 13.2316 21.3451 13.3643M21.5238 12.8698L21.3451 13.3643M21.3451 13.3643C21.3165 13.4306 21.2905 13.4838 21.2682 13.5243M21.3451 13.3643L21.2682 13.5243M21.2682 13.5243C21.2572 13.5444 21.2479 13.5597 21.2406 13.5708M21.2682 13.5243L21.2406 13.5708M21.2406 13.5708C21.2332 13.5823 21.2293 13.587 21.2294 13.5868L21.2406 13.5708ZM13.3217 20.8316C13.2651 20.7639 13.1896 20.6336 13.1252 20.4845C13.3253 20.4771 13.6046 20.474 13.9933 20.474C14.3809 20.474 14.6604 20.4744 14.8656 20.4828C14.7661 20.7141 14.6453 20.8651 14.5203 20.96C14.3857 21.0623 14.2165 21.1224 13.9933 21.1224C13.7156 21.1224 13.4624 21.0002 13.3218 20.8317L13.3217 20.8316ZM14.8351 2.6473C14.8352 2.64725 14.8371 2.64813 14.8404 2.65013C14.8366 2.64834 14.8349 2.64735 14.8351 2.6473ZM14.8142 3.27852C14.8141 3.27846 14.8159 3.27747 14.8202 3.27577C14.8165 3.27774 14.8144 3.27859 14.8142 3.27852ZM4.02329 2.33288L4.02333 2.33285C4.16158 2.20663 4.271 2.11829 4.35861 2.05884C4.41366 2.02148 4.45302 2.00044 4.47891 1.98879C4.48044 1.99041 4.48202 1.99213 4.48366 1.99394C4.50645 2.01906 4.51624 2.03561 4.52005 2.04321C4.51383 2.06547 4.48012 2.14817 4.32767 2.29264L4.32766 2.29265C2.41714 4.1033 1.43069 5.7108 0.907287 7.92834C0.358592 10.2529 0.627155 13.3618 1.56711 15.6467L1.56712 15.6468C1.70547 15.983 1.75717 16.1726 1.76737 16.2859C1.7705 16.3206 1.76953 16.3407 1.76697 16.3529C1.76677 16.3529 1.76657 16.353 1.76637 16.353C1.7575 16.3546 1.7473 16.3556 1.73645 16.3557C1.72574 16.3558 1.71583 16.3549 1.70738 16.3535C1.67075 16.2961 1.60401 16.1686 1.51533 15.9516C1.41544 15.707 1.30551 15.3943 1.19576 15.0423C0.976072 14.3378 0.765368 13.503 0.641037 12.7906C0.549834 12.2679 0.50062 11.4774 0.500006 10.6727C0.499391 9.86719 0.54753 9.08999 0.63722 8.59249C1.10611 5.99195 2.17905 4.01621 4.02329 2.33288ZM1.75446 16.3754C1.75687 16.3725 1.75922 16.3698 1.76148 16.3674C1.75985 16.3699 1.75817 16.3716 1.7567 16.373C1.75588 16.3739 1.75512 16.3746 1.75446 16.3754ZM25.8602 16.7087C26.0591 16.9071 26.479 16.9025 26.6435 16.7L25.8602 16.7087ZM23.842 2.21754L23.842 2.21756C24.3939 2.68683 25.3738 3.82089 25.8039 4.49204C27.4198 7.01338 27.9179 10.3583 27.1394 13.7535C27.0206 14.2714 26.8355 14.8944 26.6529 15.4209C26.5617 15.6839 26.4731 15.9169 26.396 16.097C26.3573 16.1872 26.3235 16.2596 26.2953 16.3138C26.2868 16.3303 26.2795 16.3435 26.2736 16.354C26.2693 16.3544 26.2645 16.3547 26.2592 16.3547C26.244 16.3549 26.2302 16.3531 26.2192 16.3506C26.2191 16.339 26.2196 16.3225 26.2219 16.3C26.2366 16.1579 26.3046 15.9172 26.4724 15.4797C27.1308 13.7626 27.4288 11.9199 27.3475 10.0716C27.2146 7.04812 26.0514 4.4845 23.9172 2.56237C23.6559 2.32702 23.539 2.20827 23.4829 2.13333C23.4749 2.12262 23.4697 2.11481 23.4665 2.1096C23.4667 2.10708 23.4674 2.10084 23.4695 2.09092C23.4726 2.07572 23.4776 2.05758 23.4845 2.03883C23.4914 2.01997 23.4987 2.00464 23.5045 1.99421C23.5052 1.99306 23.5058 1.99204 23.5063 1.99114C23.5243 1.99779 23.5514 2.00982 23.5886 2.03136C23.6539 2.06912 23.7372 2.12848 23.842 2.21754ZM26.2132 16.3546C26.2129 16.3544 26.2127 16.3541 26.2125 16.3539C26.2128 16.3542 26.213 16.3545 26.2133 16.3547L26.2132 16.3546ZM23.8041 7.35149L23.8041 7.35144C23.3976 6.40134 22.9349 5.74073 22.0823 4.86513C21.9011 4.67903 21.7758 4.54489 21.6899 4.43989C21.6511 4.39256 21.6248 4.35648 21.6072 4.32916C21.6169 4.31483 21.6289 4.29824 21.6437 4.27872C21.6554 4.2842 21.6691 4.29121 21.685 4.30014C21.8869 4.41345 22.2033 4.69834 22.6807 5.24742L23.058 4.91933L22.6807 5.24742C23.5546 6.25227 24.07 7.27954 24.3957 8.68513L24.3957 8.68516C24.4961 9.11829 24.562 9.80791 24.5784 10.5191C24.5948 11.2316 24.5602 11.9105 24.4804 12.3239C24.3175 13.1679 23.9913 14.2394 23.7771 14.6772L23.7771 14.6773C23.7316 14.7703 23.6994 14.8309 23.6742 14.8726C23.6722 14.8759 23.6703 14.879 23.6685 14.8818C23.6632 14.8823 23.6584 14.8825 23.6541 14.8826C23.6546 14.8646 23.6561 14.8402 23.6601 14.808C23.6844 14.6084 23.7743 14.2763 23.9701 13.6716L23.9701 13.6716C24.3707 12.4342 24.4977 11.5078 24.4376 10.2428C24.382 9.07145 24.2212 8.32651 23.8041 7.35149ZM7.85348 6.88999L7.85353 6.88996C7.93084 6.82822 7.98659 6.7907 8.02608 6.76857C8.03061 6.77297 8.03554 6.77791 8.04089 6.78344C8.05462 6.79767 8.06516 6.80949 8.07317 6.81901C8.05906 6.8469 8.03326 6.89064 7.98697 6.95396C7.91364 7.05426 7.8064 7.18047 7.65384 7.34598L7.65384 7.34598C6.25174 8.86714 5.91963 10.8052 6.62439 12.9279L6.81573 13.5043L6.78899 13.544C6.77518 13.5645 6.76296 13.5779 6.75376 13.5865C6.75068 13.5834 6.74726 13.5797 6.74352 13.5754L6.74348 13.5753C6.72569 13.5544 6.67898 13.4825 6.61543 13.3354C6.55589 13.1976 6.49366 13.0224 6.43404 12.8214C6.31463 12.4187 6.21387 11.9401 6.16469 11.5C5.96309 9.69524 6.67681 7.8295 7.85348 6.88999Z" stroke="white"/>
</svg>
