<svg width="28" height="27" viewBox="0 0 28 27" fill="none" xmlns="http://www.w3.org/2000/svg">
<path fill-rule="evenodd" clip-rule="evenodd" d="M19.744 0.781256C19.6989 0.799607 19.6066 0.870583 19.5389 0.939006C19.3471 1.13279 19.3806 1.37264 19.6653 1.844C20.1679 2.67608 20.4371 3.58022 20.3814 4.2492C20.3434 4.70501 20.2374 4.98551 19.862 5.62258C19.2365 6.6843 19.1465 7.89343 19.5827 9.37656C19.7672 10.004 20.0844 10.7231 20.2652 10.9239C20.4388 11.1168 20.692 11.115 20.868 10.9195C21.0568 10.7098 21.039 10.4792 20.7911 9.92795C20.3879 9.03079 20.2007 8.16682 20.255 7.45293C20.2964 6.90907 20.4198 6.53062 20.7117 6.0522C21.029 5.5321 21.1558 5.23167 21.2547 4.76541C21.4643 3.77808 21.1607 2.46996 20.4495 1.29637C20.1735 0.840989 19.9675 0.690532 19.744 0.781256ZM22.8125 0.80459C22.4501 0.965561 22.4467 1.29492 22.8013 1.89571C23.2879 2.72007 23.5591 3.64779 23.4911 4.25497C23.4388 4.72123 23.35 4.96375 23.036 5.49807C22.3479 6.6688 22.2412 7.82075 22.6804 9.33681C22.8655 9.97583 23.2147 10.7591 23.3944 10.9381C23.6671 11.2099 24.1204 10.9838 24.1204 10.5758C24.1204 10.4793 24.0337 10.2112 23.9277 9.98015C23.5796 9.22148 23.3546 8.32432 23.3546 7.69515C23.3546 7.01961 23.5048 6.54787 23.9543 5.81236C24.5951 4.76365 24.5868 3.46221 23.93 2.0085C23.6629 1.41724 23.3254 0.892337 23.1579 0.807568C22.999 0.727113 22.9871 0.727052 22.8125 0.80459ZM3.35204 1.04036C3.20258 1.10903 3.05898 1.33545 3.05898 1.50243C3.05898 1.57359 3.17069 1.82048 3.30729 2.05103C3.95762 3.14896 4.19105 4.20168 3.95521 4.97329C3.90658 5.13238 3.77469 5.41367 3.66205 5.59828C3.247 6.27868 3.0923 6.70854 3.00362 7.4279C2.88841 8.36273 3.11708 9.52647 3.63475 10.6398C3.94723 11.3119 4.18361 11.4633 4.49515 11.1912C4.73509 10.9815 4.73175 10.8059 4.47688 10.2244C3.7551 8.57784 3.71714 7.36348 4.35456 6.31283C4.98017 5.28162 5.12448 4.36842 4.8364 3.26418C4.63739 2.50131 4.14307 1.45236 3.83929 1.14829C3.7121 1.02092 3.49772 0.97346 3.35204 1.04036ZM6.34347 1.15193C6.11962 1.40059 6.13144 1.58173 6.4002 2.02138C6.8693 2.78868 7.1635 3.67903 7.16006 4.32115C7.1577 4.77264 7.01968 5.18908 6.68281 5.7615C5.87345 7.13676 5.8828 8.70199 6.71169 10.5714C7.0402 11.3125 7.32773 11.4976 7.62932 11.1625C7.82516 10.9451 7.80054 10.705 7.51652 10.0608C7.17149 9.27811 7.03763 8.68807 7.03506 7.93918C7.03259 7.20683 7.12477 6.88312 7.53331 6.18954C7.90426 5.55975 8.03955 5.1387 8.07434 4.50588C8.12019 3.67174 7.87325 2.71351 7.37904 1.80772C6.94178 1.00633 6.64419 0.817898 6.34347 1.15193ZM13.5485 5.78337C12.9708 5.94531 12.466 6.41625 12.2144 7.02769C12.0914 7.32666 12.0642 7.47979 12.0631 7.87842C12.0612 8.51647 12.2437 8.98552 12.6665 9.42973C12.934 9.71071 12.9606 9.76248 12.9606 10.0016V10.2645L12.5913 10.3065C10.7037 10.5209 8.41893 11.5759 6.91285 12.9285C5.24702 14.4247 3.99767 16.2826 3.30948 18.2869C2.9296 19.3934 2.56789 21.0813 2.56603 21.7563C2.5657 21.8773 2.55055 22.0761 2.53239 22.1982L2.49935 22.4201L1.80815 22.4413C1.21279 22.4595 1.08281 22.4821 0.870777 22.6046C0.536146 22.7978 0.340301 23.013 0.17077 23.3739C0.0479028 23.6353 0.0249813 23.7711 0.00676453 24.3461C-0.0113429 24.9176 0.00255223 25.0646 0.102334 25.3594C0.24227 25.7727 0.564155 26.1611 0.916948 26.3422L1.17165 26.473H14H26.8283L27.0831 26.3422C27.4358 26.1611 27.7577 25.7727 27.8977 25.3594C27.9974 25.0646 28.0113 24.9176 27.9932 24.3461C27.975 23.7711 27.9521 23.6353 27.8292 23.3739C27.6597 23.013 27.4639 22.7978 27.1292 22.6046C26.9172 22.4821 26.7872 22.4595 26.1919 22.4413L25.5007 22.4201L25.4676 22.1982C25.4494 22.0761 25.4343 21.8773 25.434 21.7563C25.4336 21.6352 25.3828 21.2114 25.3211 20.8144C24.8335 17.6812 23.4031 15.0123 21.0893 12.9187C19.6379 11.6054 17.274 10.5183 15.4087 10.3065L15.0394 10.2645V10.0016C15.0394 9.76248 15.066 9.71071 15.3335 9.42973C15.7567 8.9851 15.939 8.51628 15.9365 7.87842C15.9349 7.48107 15.907 7.32447 15.7838 7.021C15.4872 6.29029 14.8452 5.79856 14.1253 5.75056C13.921 5.73695 13.6614 5.75171 13.5485 5.78337ZM14.5942 6.98005C14.8867 7.23776 15.061 7.65832 15.0154 7.99624C14.9712 8.32335 14.7994 8.6191 14.5457 8.80444C14.1393 9.10147 14.1151 9.14929 14.0979 9.68962C14.0846 10.1059 14.0666 10.1895 13.9863 10.2065C13.9013 10.2246 13.8906 10.1697 13.8906 9.71648C13.8906 9.1533 13.8868 9.14516 13.4648 8.81671C12.7677 8.27401 12.8291 7.30345 13.5897 6.84587C13.8467 6.69128 14.3414 6.75734 14.5942 6.98005ZM15.5317 11.3665C16.7063 11.5634 17.6938 11.9025 18.6566 12.4396C21.9673 14.2866 24.1285 17.734 24.5006 21.7615C24.5322 22.1039 24.5581 22.3949 24.5581 22.4081C24.5581 22.4212 23.9292 22.432 23.1606 22.432H21.7631L21.6289 22.5812C21.4967 22.7279 21.4555 22.9774 21.5286 23.1888C21.6194 23.4518 21.7491 23.465 24.2299 23.465C26.8166 23.465 26.8231 23.4659 26.9915 23.8276C27.1027 24.0664 27.1018 24.8109 26.99 25.0725C26.8207 25.4688 27.8423 25.4399 14 25.4399C3.30975 25.4399 1.35787 25.427 1.23714 25.3552C1.02428 25.2287 0.925482 24.9386 0.925482 24.4403C0.925482 23.9648 1.01339 23.7 1.21323 23.5732C1.31082 23.5112 3.1464 23.4892 10.2375 23.465L19.1393 23.4346L19.2611 23.2993C19.4407 23.0998 19.4272 22.7623 19.2322 22.576L19.0814 22.432H11.2617C6.96082 22.432 3.44192 22.4212 3.44192 22.4081C3.44192 22.3949 3.46779 22.1039 3.49941 21.7615C3.99072 16.4438 7.63927 12.1906 12.4136 11.3701C13.2916 11.2192 14.644 11.2176 15.5317 11.3665Z" fill="white"/>
</svg>
