<svg width="15" height="15" viewBox="0 0 15 15" fill="none" xmlns="http://www.w3.org/2000/svg">
<path fill-rule="evenodd" clip-rule="evenodd" d="M6.865 0.755702C4.62295 0.937971 2.62503 2.21904 1.51844 4.18387C0.588968 5.83418 0.412644 7.85439 1.04012 9.66378C1.37143 10.6191 1.86707 11.4171 2.58846 12.1566C4.6097 14.2287 7.72804 14.7722 10.3358 13.5068C11.743 12.824 12.9122 11.6199 13.5354 10.2118C14.5613 7.89372 14.2292 5.27035 12.6565 3.26849C12.2873 2.7985 11.5513 2.13368 11.0386 1.80692C10.4667 1.4425 9.7586 1.13079 9.13126 0.967379C8.65467 0.84321 8.3379 0.790212 7.85462 0.753724C7.42501 0.721277 7.28471 0.721564 6.865 0.755702ZM8.27055 2.02694C8.85101 2.13021 9.26654 2.26215 9.77231 2.50378C11.8955 3.51808 13.1344 5.759 12.8612 8.09095C12.6213 10.1385 11.256 11.8847 9.33188 12.6051C6.90969 13.512 4.20524 12.628 2.78639 10.4656C2.37654 9.84106 2.10346 9.13678 1.95447 8.32008C1.88494 7.93903 1.88494 6.98134 1.95447 6.60029C2.06462 5.9965 2.19299 5.59224 2.43554 5.08533C3.2561 3.3703 4.86568 2.22592 6.79329 1.98704C7.10007 1.94901 7.96362 1.97234 8.27055 2.02694ZM7.10882 3.25387C7.03783 3.29176 6.94101 3.37769 6.89368 3.44482L6.80763 3.5669L6.79903 5.56372C6.79277 7.01229 6.79948 7.59198 6.82355 7.67516C6.85097 7.77001 7.02589 7.95961 7.83555 8.77224C8.87826 9.81879 8.97427 9.89655 9.22368 9.89655C9.66683 9.89655 9.95764 9.44242 9.77431 9.03666C9.73166 8.94221 9.48626 8.67748 8.85767 8.04778L7.99931 7.18789L7.99151 5.37964L7.9837 3.5714L7.90528 3.45921C7.77984 3.27972 7.64783 3.20677 7.42748 3.19505C7.26994 3.18668 7.2161 3.1966 7.10882 3.25387Z" fill="#FFE600"/>
</svg>
